<?xml version="1.0" standalone="no"?>
<!DOCTYPE svg PUBLIC "-//W3C//DTD SVG 20010904//EN"
 "http://www.w3.org/TR/2001/REC-SVG-20010904/DTD/svg10.dtd">
<svg version="1.0" xmlns="http://www.w3.org/2000/svg"
 width="512.000000pt" height="512.000000pt" viewBox="0 0 512.000000 512.000000"
 preserveAspectRatio="xMidYMid meet">
<metadata>
Created by potrace 1.11, written by Peter Selinger 2001-2013
</metadata>
<g transform="translate(0.000000,512.000000) scale(0.100000,-0.100000)"
fill="#000000" stroke="none">
<path d="M2280 5049 c-146 -16 -347 -62 -510 -115 -923 -302 -1592 -1132
-1699 -2106 -14 -125 -14 -411 0 -536 51 -472 243 -933 539 -1301 415 -515
1023 -848 1682 -920 125 -14 411 -14 536 0 473 52 932 242 1301 539 374 301
656 708 805 1161 90 272 126 498 126 791 0 287 -36 515 -126 787 -245 745
-840 1341 -1581 1584 -172 56 -367 99 -528 117 -106 12 -438 11 -545 -1z
m-250 -1479 l155 -100 28 -86 c18 -57 28 -109 28 -151 1 -64 1 -64 -86 -195
-48 -72 -83 -133 -77 -137 151 -99 1015 -658 1585 -1026 196 -126 359 -238
362 -247 7 -19 -86 -165 -111 -175 -7 -3 -105 54 -221 130 -328 212 -566 366
-878 567 -159 103 -420 271 -578 373 -158 103 -291 187 -295 187 -4 0 -44 -57
-89 -125 -64 -96 -91 -129 -120 -143 -49 -25 -130 -42 -200 -42 -53 0 -63 4
-192 86 -75 48 -146 97 -158 110 -36 38 -86 181 -87 249 -1 60 0 61 82 179 45
66 82 122 82 125 0 4 -18 17 -40 31 -30 18 -40 31 -40 50 0 28 82 158 106 167
8 3 32 -6 54 -21 22 -14 43 -26 48 -26 5 0 48 59 96 131 71 106 94 133 124
146 54 22 149 41 212 42 53 1 60 -3 210 -99z"/>
</g>
</svg>
