<?xml version="1.0" standalone="no"?>
<!DOCTYPE svg PUBLIC "-//W3C//DTD SVG 20010904//EN"
 "http://www.w3.org/TR/2001/REC-SVG-20010904/DTD/svg10.dtd">
<svg version="1.0" xmlns="http://www.w3.org/2000/svg"
 width="512.000000pt" height="512.000000pt" viewBox="0 0 512.000000 512.000000"
 preserveAspectRatio="xMidYMid meet">
<metadata>
Created by potrace 1.11, written by Peter Selinger 2001-2013
</metadata>
<g transform="translate(0.000000,512.000000) scale(0.100000,-0.100000)"
fill="#000000" stroke="none">
<path d="M1141 4280 c-5 -3 -13 -26 -19 -52 l-10 -48 57 -1 c155 -1 218 -18
271 -70 59 -58 78 -129 74 -270 -2 -63 -5 -125 -8 -139 -3 -14 -13 -68 -22
-120 -9 -52 -18 -104 -20 -115 -2 -11 -7 -36 -10 -55 -3 -19 -12 -66 -19 -105
-13 -66 -17 -91 -31 -182 -3 -21 -7 -45 -9 -53 -2 -8 -7 -31 -10 -50 -3 -19
-10 -60 -16 -90 -11 -59 -13 -72 -23 -135 -4 -22 -11 -62 -17 -90 -5 -27 -11
-63 -14 -80 -2 -16 -8 -55 -14 -85 -11 -60 -16 -90 -28 -159 -4 -25 -8 -48 -8
-51 -3 -9 -15 -75 -20 -105 -3 -16 -14 -79 -24 -140 -24 -135 -30 -172 -37
-210 -3 -16 -7 -37 -9 -45 -2 -8 -7 -33 -10 -55 -3 -23 -8 -52 -10 -65 -4 -21
-19 -105 -31 -175 -1 -11 -10 -60 -19 -110 -9 -49 -18 -103 -21 -120 -2 -16
-9 -50 -14 -75 -5 -25 -11 -58 -14 -75 -5 -39 -45 -272 -52 -307 l-6 -28 243
0 c133 0 240 2 237 6 -3 3 -2 22 3 42 5 20 13 64 19 97 5 33 12 71 15 85 2 14
13 79 25 145 11 66 22 134 25 150 3 17 12 66 20 110 14 79 18 102 35 200 18
105 71 411 76 435 3 14 7 39 10 55 3 17 12 66 19 110 23 129 26 148 34 195 l6
45 788 3 c433 1 787 0 787 -2 0 -2 -5 -28 -10 -57 -6 -30 -13 -67 -16 -84 -3
-16 -27 -156 -54 -310 -27 -154 -52 -296 -55 -315 -9 -54 -24 -142 -30 -175
-41 -220 -48 -283 -49 -395 -1 -155 11 -201 68 -255 75 -73 112 -79 482 -83
261 -3 321 -1 321 10 0 7 3 31 7 54 l7 40 -67 0 c-282 -3 -369 107 -327 413
18 132 19 137 57 354 19 106 37 206 39 222 8 48 57 325 67 380 5 28 12 64 15
80 3 17 16 93 30 170 13 77 34 194 45 260 12 66 23 134 26 150 3 17 9 53 14
80 5 28 18 102 29 165 28 156 29 160 35 202 3 21 10 57 15 80 5 24 12 61 15
83 4 22 15 90 26 150 22 128 21 118 60 345 17 96 33 186 35 200 l6 26 -235 -1
c-129 0 -237 -3 -239 -5 -3 -3 -12 -48 -21 -100 -9 -52 -18 -106 -21 -120 -5
-24 -65 -370 -70 -400 -1 -8 -6 -33 -10 -55 -13 -70 -15 -78 -30 -165 -7 -47
-23 -137 -35 -200 -12 -63 -23 -131 -26 -150 -3 -19 -9 -55 -14 -80 -5 -25
-14 -72 -20 -105 -5 -33 -12 -69 -14 -80 -2 -11 -7 -41 -10 -67 l-7 -48 -785
0 c-740 0 -784 1 -784 18 0 9 7 53 15 97 8 44 26 147 40 229 14 82 28 152 29
155 2 3 7 26 10 51 3 25 8 56 11 70 3 14 12 63 20 110 7 47 21 126 30 175 9
50 17 100 20 112 28 161 21 365 -16 435 -29 55 -98 95 -199 114 -42 8 -617 12
-629 4z"/>
</g>
</svg>
