<?xml version="1.0" standalone="no"?>
<!DOCTYPE svg PUBLIC "-//W3C//DTD SVG 20010904//EN"
 "http://www.w3.org/TR/2001/REC-SVG-20010904/DTD/svg10.dtd">
<svg version="1.0" xmlns="http://www.w3.org/2000/svg"
 width="512.000000pt" height="512.000000pt" viewBox="0 0 512.000000 512.000000"
 preserveAspectRatio="xMidYMid meet">
<metadata>
Created by potrace 1.11, written by Peter Selinger 2001-2013
</metadata>
<g transform="translate(0.000000,512.000000) scale(0.100000,-0.100000)"
fill="#000000" stroke="none">
<path d="M2476 3953 c-2 -3 -10 -6 -18 -7 -33 -6 -66 -21 -108 -50 -72 -49
-2182 -2165 -2205 -2211 -11 -22 -22 -42 -25 -45 -11 -11 -15 -40 -16 -135 -2
-102 9 -146 49 -189 9 -11 17 -26 17 -33 0 -7 7 -13 16 -13 8 0 13 -4 10 -8
-7 -12 81 -67 136 -85 81 -28 163 -25 243 9 19 8 38 15 42 16 19 6 99 84 811
795 414 413 759 757 767 763 12 10 14 -87 15 -622 0 -563 2 -679 10 -698 1 -3
3 -9 5 -15 1 -5 3 -13 5 -17 1 -5 3 -11 4 -15 5 -21 48 -91 69 -113 41 -43 75
-69 81 -63 3 4 6 1 6 -5 0 -7 4 -12 9 -12 5 0 22 -5 38 -11 47 -19 166 -31
188 -20 6 3 12 6 15 7 3 1 20 5 38 9 18 4 35 12 38 16 3 5 10 7 15 4 5 -4 9
-1 9 4 0 6 7 11 16 11 22 0 2194 2172 2194 2194 0 9 4 16 8 16 9 0 39 99 34
113 -1 4 2 7 6 7 5 0 8 25 8 55 -1 30 -5 55 -10 55 -5 0 -7 2 -4 6 10 9 -21
96 -46 128 -35 47 -86 99 -86 90 0 -5 -4 -4 -8 1 -13 18 -66 42 -117 54 -74
17 -157 7 -230 -28 -58 -27 -128 -94 -812 -778 -412 -411 -757 -754 -766 -761
-14 -12 -16 38 -17 625 -1 710 0 673 -11 673 -5 0 -6 7 -3 15 9 23 -47 126
-93 172 -47 47 -84 69 -152 88 -42 13 -165 18 -175 8z"/>
</g>
</svg>
